# xmcd CD database file
#
# Track frame offsets:
#	150
#	21670
#	36877
#	51220
#	63040
#	82797
#	98370
#	112102
#	131097
#	149855
#	162277
#	177565
#	192725
#	213565
#
# Disc length: 3166 seconds
#
# Revision: 7
# Processed by: cddbd v1.5.2PL0 Copyright (c) Steve Scherf et al.
# Submitted via: CDex 1.74
#
DISCID=d20c5c0e
DTITLE=Brickman, Jim - My Romance  An Evening With Jim Brickman
DYEAR=2000
DGENRE=Easy Listening
TTITLE0=Glory (Ft. David Benoit)
TTITLE1=Rocket To The Moon
TTITLE2=Lake Erie Rainfall
TTITLE3=Picture This
TTITLE4=Love Of My Life (Ft. Donny Osmond)
TTITLE5=Freedom
TTITLE6=Edgewater
TTITLE7=Valentine (Ft. Olivia Newton-John)
TTITLE8=Change Of Heart (Ft. Olivia Newton-John)
TTITLE9=Circles
TTITLE10=The Love I Found In You (Ft. Dave Koz)
TTITLE11=Partners In Crime (Ft. Dave Koz)
TTITLE12=By Heart (Ft. Anne Cochron)
TTITLE13=Starbright (The Lullaby Medley)
EXTD=YEAR: 2000
EXTT0=
EXTT1=
EXTT2=
EXTT3=
EXTT4=
EXTT5=
EXTT6=
EXTT7=
EXTT8=
EXTT9=
EXTT10=
EXTT11=
EXTT12=
EXTT13=
PLAYORDER=
